<svg width="35" height="37" viewBox="0 0 35 37" fill="none" xmlns="http://www.w3.org/2000/svg">
<path d="M17.5027 36.5647C27.1525 36.5647 34.9752 28.5611 34.9752 18.6882C34.9752 8.81532 27.1525 0.811768 17.5027 0.811768C7.85297 0.811768 0.030304 8.81532 0.030304 18.6882C0.030304 28.5611 7.85297 36.5647 17.5027 36.5647Z" fill="white"/>
<path d="M22.8892 11.9521C22.1711 11.9521 21.6924 12.4419 21.6924 13.1766C21.6924 13.9112 22.2908 14.401 22.8892 14.401C23.6072 14.401 24.0859 13.9112 24.0859 13.1766C24.0859 12.5644 23.6072 11.9521 22.8892 11.9521Z" fill="#062D3E"/>
<path d="M17.6231 13.5469C14.8706 13.5469 12.5967 15.8733 12.5967 18.6894C12.5967 21.5056 14.8706 23.832 17.6231 23.832C20.3756 23.832 22.6494 21.5056 22.6494 18.6894C22.6494 15.8733 20.3756 13.5469 17.6231 13.5469ZM17.6231 21.9953C15.8279 21.9953 14.3919 20.526 14.3919 18.6894C14.3919 16.8528 15.8279 15.3835 17.6231 15.3835C19.4182 15.3835 20.8543 16.8528 20.8543 18.6894C20.8543 20.526 19.4182 21.9953 17.6231 21.9953Z" fill="#062D3E"/>
<path d="M21.5733 29.2188H13.4355C10.0846 29.2188 7.33209 26.4027 7.33209 22.9743V14.6483C7.33209 11.22 10.0846 8.40381 13.4355 8.40381H21.5733C24.9242 8.40381 27.6767 11.22 27.6767 14.6483V22.8519C27.7964 26.4027 25.0439 29.2188 21.5733 29.2188ZM13.4355 10.2404C11.042 10.2404 9.24688 12.1995 9.24688 14.5259V22.8519C9.24688 25.3007 11.1617 27.1373 13.4355 27.1373H21.5733C23.9668 27.1373 25.7619 25.1783 25.7619 22.8519V14.5259C25.7619 12.0771 23.8471 10.2404 21.5733 10.2404H13.4355Z" fill="#062D3E"/>
</svg>
