<svg width="166" height="93" viewBox="0 0 166 93" fill="none" xmlns="http://www.w3.org/2000/svg">
<g clip-path="url(#clip0_1_729)">
<path d="M-72.2711 83.4374C-72.9436 79.0798 -74.5059 74.9072 -76.8606 71.1794C-79.2154 67.4516 -82.3122 64.2484 -85.9583 61.7691C-85.8859 58.3102 -85.0812 54.9059 -83.5973 51.7807C-82.1133 48.6555 -79.9837 45.8803 -77.349 43.6382C-63.9499 32.4952 -45.2515 35.832 -32.3685 45.9653L-31.5914 46.5786C-34.0636 48.961 -35.8927 51.93 -36.9088 55.2095C-39.3204 63.5486 -30.8292 75.2058 -21.962 69.0167C-13.3927 63.0338 -18.2038 53.4707 -23.9512 46.9882C-22.2056 45.7661 -20.362 44.6903 -18.4394 43.7717C-8.15302 38.946 5.57691 38.2258 16.5446 42.8654C14.1437 46.5916 12.9201 50.8237 13.9878 55.36C15.6411 62.4755 25.9702 67.5929 31.9059 62.1617C39.763 55.004 30.5307 45.6895 23.7583 41.3616C26.7076 38.5585 30.0969 36.258 33.7909 34.5519C40.192 31.645 47.1796 30.2609 54.2055 30.5082C61.2314 30.7555 68.1044 32.6275 74.2853 35.9774C76.0996 36.9706 77.8479 38.0799 79.5194 39.2982C76.9176 42.8568 74.8995 47.1824 75.8363 51.6334C76.2878 53.672 77.3481 55.5253 78.8768 56.9475C80.4054 58.3698 82.3303 59.2939 84.3961 59.5973C86.3323 59.7588 88.2567 59.1706 89.7718 57.9541C91.2869 56.7377 92.277 54.9859 92.5377 53.0605C93.2209 48.6001 90.6711 44.0469 87.8363 40.8363C87.1965 40.1061 86.5206 39.4104 85.8259 38.727C87.2444 37.2622 88.7668 35.9018 90.3812 34.6565C101.593 25.9761 116.624 22.8775 130.489 25.2729C131.928 25.5164 133.345 25.8429 134.748 26.2114C134.767 29.0383 135.062 31.8566 135.628 34.6263C137.487 43.6609 143.44 57.6206 154.298 58.336C164.446 59.0042 165.621 47.8604 162.31 40.8595C158.13 31.9571 148.27 26.2005 139.276 23.1913C138.847 23.0506 138.428 22.9185 138 22.7877C138.338 16.0943 140.294 9.5826 143.701 3.81108C144.447 2.53512 142.257 1.21209 141.469 2.47286C137.802 8.36266 135.556 15.0253 134.909 21.9333C116.618 17.4409 95.6598 22.1032 82.4642 35.8301C68.2747 24.5215 46.9604 22.5701 30.7995 30.6953C26.5757 32.805 22.7426 35.6194 19.4648 39.0175C9.59983 34.6034 -1.45717 33.6121 -11.95 36.2011C-17.6017 37.5629 -22.9553 39.9507 -27.7446 43.246L-28.1157 42.9171C-37.0522 35.4306 -48.7916 30.6504 -60.5966 31.5567C-76.0517 32.7619 -89.3345 44.8075 -91.1153 58.9326C-93.417 57.9648 -95.8375 57.3084 -98.3128 56.9806C-111.357 55.2337 -124.102 62.6044 -129.949 74.1773C-131.46 77.1645 -126.685 79.2404 -125.184 76.2544C-120.407 66.7911 -109.75 60.6731 -99.0988 62.1077C-96.3396 62.4783 -93.6665 63.329 -91.2007 64.6215C-90.7557 68.9203 -89.2962 73.052 -86.9421 76.6763C-84.2933 80.8539 -80.4387 84.129 -75.8883 86.0684C-75.4741 86.2533 -75.0185 86.3258 -74.5674 86.2785C-74.1163 86.2312 -73.6856 86.0658 -73.3188 85.799C-72.9519 85.5322 -72.6619 85.1734 -72.478 84.7588C-72.2941 84.3442 -72.2227 83.8884 -72.2711 83.4374ZM152.099 34.691C155.312 37.0705 157.804 40.2938 159.297 44.0033C161.043 48.7417 160.32 54.7474 153.927 54.1607C144.288 53.2816 139.421 38.449 138.34 30.5512C138.206 29.4091 138.071 28.2669 138.017 27.1254C143.119 28.8006 147.886 31.3617 152.099 34.691ZM87.9487 52.3119C86.738 57.6803 80.7847 53.6386 80.1366 50.4425C79.6275 47.9146 80.9623 45.1396 82.2976 43.1397C82.5184 42.7915 82.7503 42.4521 82.9921 42.1115C86.2727 45.0883 88.7956 48.7283 87.9873 52.2973L87.9487 52.3119ZM26.06 49.0251C28.7417 51.6194 32.4583 58.9854 26.0362 59.4292C25.0596 59.4893 24.0811 59.3485 23.161 59.0156C22.2409 58.6827 21.3988 58.1648 20.6867 57.4937C19.9746 56.8227 19.4075 56.0129 19.0206 55.1142C18.6336 54.2155 18.435 53.2471 18.4369 52.2686C18.451 49.6588 19.2413 47.1122 20.7072 44.953C22.6532 46.0954 24.4621 47.4568 26.0986 49.0105L26.06 49.0251ZM-24.3993 54.1295C-23.6573 55.1738 -23.1324 56.3562 -22.8555 57.6069C-22.5785 58.8576 -22.5552 60.1511 -22.7869 61.4109C-23.7675 65.6547 -28.3248 66.5436 -30.9954 63.2734C-34.7283 58.6783 -31.9472 53.8199 -27.7891 49.9673C-26.4948 51.2173 -25.3449 52.6085 -24.3607 54.1149L-24.3993 54.1295ZM-84.9412 69.2112C-82.38 71.7675 -80.3604 74.8139 -79.0032 78.1684C-81.7685 75.787 -83.8121 72.6792 -84.9026 69.1966L-84.9412 69.2112Z" fill="#FBBD08"/>
</g>
<defs>
<clipPath id="clip0_1_729">
<rect width="58.38" height="295.47" fill="white" transform="translate(158.446 0.000976562) rotate(83.2859)"/>
</clipPath>
</defs>
</svg>
