<svg width="118" height="71" viewBox="0 0 118 71" fill="none" xmlns="http://www.w3.org/2000/svg">
<path d="M58.3475 6.46333C58.04 5.60967 57.425 4.87796 56.5025 4.51211C56.3488 4.39016 56.0413 4.39016 55.8875 4.2682C54.8113 3.7804 54.6576 3.7804 53.4276 3.65845C53.2739 3.65845 53.1201 3.65845 52.9664 3.65845C52.5052 3.65845 52.0439 3.5365 51.5827 3.65845C50.814 3.7804 50.199 3.90235 49.4303 4.14625C49.2765 4.14625 49.1228 4.2682 48.969 4.2682C48.5078 4.51211 47.8928 4.63406 47.2778 4.87796C46.9703 4.99991 46.6628 4.99991 46.3553 5.12186C45.8941 5.24381 45.5866 5.48772 45.2791 5.73162C45.1254 5.85357 44.9716 6.09747 44.8179 6.21942C44.6642 6.34138 44.6642 6.34138 44.5104 6.46333C44.0492 6.82918 43.5879 7.31699 43.4342 7.80479C43.4342 7.92674 43.2804 7.92674 43.2804 8.04869C42.973 8.41455 42.6655 8.90235 42.8192 9.39016C42.973 9.87796 43.4342 10.2438 43.8954 10.3658L44.0492 10.4877C44.6642 10.9755 45.4329 11.2194 46.2016 11.3414C46.5091 11.4633 46.6628 11.5853 46.9703 11.5853C47.4316 11.7072 47.8928 11.7072 48.354 11.7072C48.6615 11.7072 48.969 11.7072 49.2765 11.7072C49.8915 11.7072 50.5065 11.7072 51.1214 11.7072C51.7364 11.7072 52.5052 11.7072 53.1201 11.5853C53.8889 11.4633 54.5038 11.2194 54.9651 10.8536C55.1188 10.7316 55.2726 10.7316 55.4263 10.6097C55.7338 10.3658 56.0413 10.2438 56.5025 9.99991C56.81 9.75601 57.1175 9.51211 57.425 9.14625C57.5787 9.0243 57.7325 8.90235 57.8862 8.65845C58.5012 8.29259 58.655 7.19503 58.3475 6.46333Z" fill="#FBBD08"/>
<path d="M30.0577 16.8292C29.7502 16.3414 29.2889 15.9755 28.674 15.8536C28.5202 15.8536 28.3665 15.7316 28.2127 15.7316C27.7515 15.6096 27.2903 15.6096 26.829 15.7316C26.6753 15.7316 26.6753 15.7316 26.5215 15.8536C25.9066 15.9755 25.2916 16.0975 24.8303 16.3414C24.6766 16.4633 24.5228 16.4633 24.3691 16.5853C24.0616 16.7072 23.7541 16.9511 23.4466 17.0731L22.9854 17.317C22.5242 17.5609 22.2167 17.9267 22.2167 18.4145C21.7554 18.9023 22.2167 19.634 22.8316 19.756C22.9854 19.8779 23.2929 19.9999 23.6004 20.1218C23.9079 20.2438 24.0616 20.1218 24.3691 20.1218C24.5228 20.1218 24.6766 20.1218 24.9841 20.1218C25.5991 20.1218 26.214 19.9999 26.829 19.9999C27.2903 19.8779 27.5977 19.8779 27.9052 19.756C28.059 19.634 28.2127 19.634 28.5202 19.5121C28.674 19.5121 28.674 19.5121 28.8277 19.3901C29.2889 19.1462 29.5964 18.9023 29.9039 18.5365C30.0577 18.4145 30.0577 18.2926 30.2114 18.1706C30.3652 17.8048 30.3652 17.195 30.0577 16.8292Z" fill="#FBBD08"/>
<path d="M37.8989 31.0976C37.8989 30.7317 37.7452 30.2439 37.5914 29.8781C37.1302 29.1464 36.054 28.5366 34.9778 28.6586C34.2091 28.6586 33.4403 28.7805 32.5179 28.7805C32.0566 28.7805 31.5954 28.7805 31.2879 28.7805C30.5192 28.7805 30.0579 28.9025 29.2892 29.0244C28.6742 29.1464 28.0593 29.2683 27.4443 29.5122C26.983 29.6342 26.6755 29.8781 26.3681 30C25.9068 30.2439 25.5993 30.4878 25.2918 30.4878C24.8306 30.6098 24.5231 30.7317 24.0619 30.8537C23.4469 31.0976 22.8319 31.5854 22.6782 32.1951C22.6782 32.439 22.5244 32.683 22.5244 32.9269C22.3707 33.0488 22.3707 33.2927 22.5244 33.2927C22.6782 33.5366 22.8319 33.7805 22.9857 34.0244C23.4469 34.6342 24.2156 34.8781 25.1381 35C25.5993 35 26.0606 35 26.5218 35.122C27.2905 35.2439 28.0593 35.3659 28.6742 35.3659C29.5967 35.3659 30.6729 35.2439 31.5954 35C32.5179 34.8781 33.4403 34.3903 34.2091 34.0244C34.824 33.7805 35.439 33.5366 36.054 33.1708C37.1302 32.683 38.0527 31.9512 37.8989 31.0976Z" fill="#FBBD08"/>
<path d="M46.9704 19.8781C46.9704 19.6342 47.1241 19.5122 47.1241 19.2683C47.1241 19.0244 46.9704 18.6586 46.6629 18.4147C46.3554 18.1708 46.0479 18.0488 45.5866 18.0488C45.4329 18.0488 45.2792 18.0488 45.1254 18.0488C44.9717 18.0488 44.6642 18.0488 44.5104 18.0488C44.3567 18.0488 44.0492 18.1708 43.8954 18.2927C44.0492 18.2927 44.2029 18.1708 44.3567 18.1708C44.3567 18.2927 44.2029 18.2927 44.0492 18.2927C43.8954 18.2927 43.8954 18.2927 43.7417 18.2927C43.4342 18.2927 43.2805 18.4147 42.973 18.5366L43.4342 18.4147C43.1267 18.5366 42.6655 18.5366 42.358 18.6586C42.0505 18.7805 41.743 18.9025 41.4355 19.0244C41.2818 19.0244 41.2818 19.0244 41.128 19.1464C40.8205 19.2683 40.5131 19.5122 40.3593 19.7561C40.2056 19.7561 40.0518 19.8781 40.0518 20H39.8981C39.5906 20 39.4368 20.3659 39.5906 20.4879L39.7443 20.6098C39.7443 20.7318 39.8981 20.9757 40.2056 21.0976L40.3593 21.2196C40.6668 21.5854 40.9743 21.9513 41.5893 22.0732C41.743 22.0732 41.8968 22.0732 42.0505 22.1952C42.358 22.1952 42.5117 22.3171 42.8192 22.3171C43.1267 22.3171 43.2805 22.3171 43.588 22.1952C44.0492 22.0732 44.6642 21.9513 45.1254 21.7074C45.4329 21.5854 45.7404 21.3415 45.8941 21.2196C46.0479 21.0976 46.2016 20.9757 46.3554 20.9757C46.6629 20.4879 46.8166 20.2439 46.9704 19.8781Z" fill="#FBBD08"/>
<path d="M67.418 27.0732C66.9568 25.9756 65.4193 25.1219 63.8819 25.1219C62.4981 25.1219 61.1144 25.3659 59.7307 25.6098C58.1933 25.8537 56.3483 26.7073 55.1184 27.561C54.9646 27.561 54.9646 27.6829 54.8109 27.6829C54.1959 28.0488 53.8884 28.1707 53.4272 28.6585C53.4272 28.6585 53.4272 28.6585 53.4272 28.7805C53.2734 28.9024 52.9659 29.0244 52.8122 29.1463C52.0435 29.6341 51.736 30.2439 51.736 30.8537C51.5822 31.0976 51.5822 31.2195 51.5822 31.4634C51.5822 31.7073 51.5822 32.1951 51.736 32.3171C52.0435 32.561 52.351 32.8049 52.8122 32.9268C53.4272 33.4146 54.3497 33.6585 55.1184 33.5366H55.7334C56.8096 33.6585 57.8858 33.4146 58.962 33.2927C58.6545 33.2927 58.1933 33.4146 57.8858 33.4146C58.8083 33.4146 59.577 33.2927 60.3457 33.0488C61.2682 32.8049 62.1907 32.6829 62.9594 32.1951C63.4206 31.9512 63.8818 31.7073 64.3431 31.4634C65.1118 31.0976 65.8805 30.7317 66.3418 30.2439C67.5717 29.5122 67.8792 28.2927 67.418 27.0732Z" fill="#FBBD08"/>
<path d="M70.1858 14.6341C70.4933 14.0243 70.0321 13.4146 69.4171 13.0487C68.8021 12.8048 68.3409 12.6829 67.7259 12.6829C67.1109 12.439 66.3422 12.317 65.5735 12.439C65.4197 12.439 65.1122 12.5609 64.9585 12.5609C64.3435 12.6829 63.7285 12.8048 63.1135 13.1707C62.806 13.4146 62.3448 13.5365 62.0373 13.7804C61.7298 14.0243 61.2686 14.1463 61.1148 14.3902C60.9611 14.5121 60.8074 14.6341 60.6536 14.756C60.3461 14.9999 60.0386 15.2438 59.8849 15.6097V15.7316C59.7311 15.8536 59.7311 15.9755 59.5774 16.2194C59.4236 16.3414 59.4237 16.4633 59.2699 16.5853C59.1162 16.7072 58.9624 16.8292 58.9624 16.9512C58.8087 17.0731 58.6549 17.1951 58.5012 17.1951C58.3474 17.317 58.5012 17.5609 58.6549 17.5609C58.8087 17.5609 59.1162 17.439 59.2699 17.5609C59.4237 17.5609 59.5774 17.5609 59.7311 17.5609C59.8849 17.5609 60.0386 17.6829 60.1924 17.6829C60.3461 17.8048 60.4999 17.8048 60.8074 17.9268C60.8074 17.9268 60.9611 17.9268 60.9611 18.0487C61.4223 18.1707 61.8836 18.1707 62.1911 18.1707C62.3448 18.1707 62.6523 18.2926 62.806 18.2926C63.2673 18.2926 63.5748 18.2926 64.036 18.1707L65.266 18.0487C65.8809 17.9268 66.4959 17.8048 67.1109 17.5609C67.2647 17.439 67.5721 17.439 67.7259 17.317C68.4946 16.9512 68.9558 16.5853 69.1096 15.9755C69.7246 15.4877 70.0321 15.1219 70.1858 14.6341Z" fill="#FBBD08"/>
<path d="M84.637 5.12195C85.0982 4.51219 85.252 3.90244 85.0982 3.29268C85.0982 2.80488 84.7907 2.31707 84.4832 1.95122C83.8683 1.21951 83.2533 0.853658 82.4846 0.731707C82.1771 0.609756 82.0233 0.487805 81.7158 0.365854C81.4083 0.243902 80.9471 0.121951 80.4859 0.121951C80.0246 0 79.7172 0 79.2559 0C78.9484 0 78.6409 0 78.4872 0.121951C77.7185 0.243902 77.1035 0.365854 76.3348 0.609756C76.0273 0.731707 75.7198 0.853658 75.4123 0.97561C75.2585 0.97561 75.1048 1.09756 74.9511 1.09756C74.6436 1.21951 74.4898 1.34146 74.1823 1.46341C74.1823 1.46341 74.0286 1.46341 74.0286 1.58537C73.7211 1.70732 73.5673 1.82927 73.2599 2.07317C73.2599 2.19512 73.1061 2.19512 73.1061 2.31707C72.7986 2.43902 72.6449 2.68293 72.3374 2.80488C72.1836 3.04878 72.0299 3.17073 71.8762 3.41463C71.5687 3.78049 71.2612 4.14634 71.4149 4.63415C71.4149 5.12195 71.8762 5.60976 72.3374 5.85366C72.4911 5.97561 72.6449 6.09756 72.6449 6.09756C72.9524 6.34146 73.4136 6.46341 73.8748 6.58537C74.1823 6.70732 74.4898 6.82927 74.7973 6.95122C74.9511 6.95122 75.1048 6.95122 75.1048 7.07317C75.566 7.19512 75.7198 7.19512 76.3348 7.31707C76.6423 7.31707 76.9497 7.43902 77.411 7.43902C77.7185 7.43902 78.1797 7.56097 78.4872 7.56097C78.7947 7.56097 79.2559 7.56098 79.5634 7.43902C80.0246 7.43902 80.4859 7.43902 80.9471 7.31707C81.2546 7.19512 81.7158 7.07317 82.0233 6.95122C82.3308 6.70732 82.6383 6.58537 82.9458 6.34146L83.407 5.85366C83.8683 5.73171 84.3295 5.4878 84.637 5.12195Z" fill="#FBBD08"/>
<path d="M100.627 15.7317C100.319 15 99.5507 14.5122 98.6282 14.2683C97.8595 14.0244 96.937 14.0244 96.1683 14.0244C95.5533 14.0244 94.9384 14.0244 94.3234 14.1464C94.0159 14.2683 93.7084 14.2683 93.4009 14.3903C93.0934 14.5122 92.7859 14.5122 92.4784 14.6342C92.1709 14.7561 91.8635 14.7561 91.556 14.8781C90.941 15.122 90.4798 15.2439 90.0185 15.6098C89.8648 15.7317 89.5573 15.8537 89.4035 15.9756C89.096 16.2195 88.7886 16.4634 88.6348 16.7073C88.6348 16.7073 88.6348 16.8293 88.4811 16.8293C88.0198 17.3171 87.5586 17.8049 87.5586 18.4147C87.5586 18.5366 87.5586 18.5366 87.5586 18.6586C87.4048 19.0244 87.5586 19.3903 87.8661 19.5122C88.3273 20 88.7885 20.3659 89.5573 20.4878C89.711 20.4878 89.8648 20.4878 90.0185 20.6098C90.4798 20.7317 91.0947 20.8537 91.7097 20.8537C92.0172 20.8537 92.3247 20.8537 92.6322 20.8537H92.3247C92.9397 20.8537 93.4009 20.8537 94.0159 20.7317C94.3234 20.7317 94.4771 20.6098 94.7846 20.4878C95.2458 20.3659 95.7071 20.2439 96.1683 20.122C97.0908 19.8781 97.7058 19.6342 98.3207 19.1464C98.4745 19.0244 98.6282 18.9025 98.782 18.7805C99.2432 18.4147 99.8582 18.0488 100.166 17.561C100.934 17.1951 100.934 16.4634 100.627 15.7317Z" fill="#FBBD08"/>
<path d="M12.6849 30.9756C12.6849 30.8537 12.8386 30.7317 12.8386 30.4878C12.9924 30.122 12.9924 29.6341 12.6849 29.2683C12.3774 28.9024 11.9161 28.6585 11.4549 28.5366C11.3012 28.5366 11.1474 28.4146 10.9937 28.4146C10.225 28.0488 9.45623 27.9268 8.6875 28.0488C7.76503 28.2927 6.68882 28.4146 5.92009 28.7805C5.6126 29.0244 5.30511 29.1463 4.99762 29.2683C4.69013 29.3902 4.22889 29.6341 3.9214 29.8781C3.76766 30 3.61391 30.122 3.61391 30.2439C3.46017 30.3659 3.30642 30.4878 3.15268 30.4878C2.84519 30.6098 2.69144 30.8537 2.5377 30.9756C2.23021 31.2195 2.07646 31.4634 1.92272 31.7073C1.92272 31.7073 1.92272 31.7073 1.76897 31.8293C1.61523 31.9512 1.61523 31.9512 1.46148 32.0732C1.46148 32.0732 1.46148 32.1951 1.30774 32.1951L1.15399 32.3171C0.846503 32.561 1.00025 33.0488 1.46148 33.1707C1.61523 33.1707 1.61523 33.1707 1.76897 33.1707C1.76897 33.1707 1.76897 33.1707 1.92272 33.2927C2.07646 33.4146 2.23021 33.4146 2.5377 33.5366H2.69144C2.99893 33.6585 3.15268 33.9024 3.61391 33.9024C3.76766 33.9024 3.9214 33.9024 4.07515 34.0244C4.38264 34.1463 4.69013 34.1463 5.15137 34.1463C5.30511 34.1463 5.45886 34.1463 5.6126 34.1463C5.92009 34.1463 6.22758 34.2683 6.53507 34.2683C6.99631 34.2683 7.45754 34.1463 7.91878 34.1463C8.53376 34.0244 9.30248 33.9024 9.91746 33.6585C10.225 33.5366 10.5324 33.2927 10.9937 33.1707C11.3012 32.9268 11.9161 32.8049 12.0699 32.561C12.2236 32.0732 12.5311 31.5854 12.6849 30.9756Z" fill="#FBBD08"/>
<path d="M20.987 44.7561C20.5257 43.6585 19.142 42.9268 17.6046 42.9268C16.9896 42.9268 16.5284 43.0488 15.9134 43.0488C15.6059 43.0488 15.2984 43.1707 14.9909 43.1707C14.0684 43.0488 13.2997 43.1707 12.531 43.5366C11.7623 43.9024 11.1473 44.1463 10.686 44.5122C10.2248 44.878 9.91732 45.2439 9.60983 45.6097C9.30234 45.9756 8.84111 46.3415 8.68736 46.8293V46.9512C7.91864 48.0488 8.68736 49.6341 10.2248 49.878C10.2248 49.878 10.2248 49.878 10.3786 49.878C10.8398 50.1219 11.4548 50.2439 12.2235 50.2439H12.3772C13.4535 50.3658 14.5297 50.3658 15.6059 50.1219C16.5284 49.878 17.4508 49.3902 18.0658 48.7805C18.2196 48.6585 18.3733 48.6585 18.527 48.5366C18.9883 48.2927 19.6033 48.0488 20.0645 47.6829C20.987 47.0732 21.4482 45.8536 20.987 44.7561Z" fill="#FBBD08"/>
<path d="M53.7349 43.6586C53.5812 43.0488 52.8125 42.561 52.0437 42.3171C51.7362 42.1952 51.5825 42.1952 51.275 42.1952C50.9675 42.0732 50.5063 41.9513 50.045 41.8293C49.4301 41.7074 48.6613 41.8293 48.0464 41.9513C47.5851 42.0732 47.1239 42.0732 46.6627 42.1952C46.3552 42.1952 46.0477 42.1952 45.5864 42.3171C45.1252 42.4391 44.664 42.561 44.2027 42.8049C43.7415 42.9269 43.2803 43.1708 42.819 43.4147C42.3578 43.6586 41.8966 43.7805 41.5891 44.0244C41.2816 44.1464 40.9741 44.2683 40.6666 44.5122C40.3591 44.6342 40.2054 44.8781 40.0516 45.122C39.7441 45.3659 39.5904 45.4879 39.2829 45.7318C39.1291 45.8537 39.1291 46.0976 38.9754 46.2196C39.1291 46.0976 39.1291 46.0976 38.9754 46.2196C38.8217 46.3415 38.8217 46.4635 38.8217 46.5854C38.2067 46.9513 38.6679 47.683 39.2829 47.8049C39.4366 47.9269 39.5904 47.9269 39.7441 48.0488C40.0516 48.2927 40.3591 48.4147 40.8203 48.5366C40.9741 48.5366 41.1278 48.5366 41.2816 48.6586C42.0503 48.9025 43.1265 48.9025 44.049 48.7805C45.1252 48.7805 46.0477 48.6586 47.1239 48.5366C48.2001 48.4147 48.9688 47.9269 50.045 47.683C50.3525 47.561 50.8138 47.4391 51.1213 47.3171C51.89 47.0732 52.6587 46.5854 52.9662 45.8537C53.1199 45.7318 53.1199 45.7318 53.2737 45.6098C53.5812 45.0001 54.0424 44.2683 53.7349 43.6586Z" fill="#FBBD08"/>
<path d="M53.4269 62.4391C53.5806 62.1952 53.7344 61.9513 53.8881 61.7074C54.0419 61.5855 54.0418 61.4635 54.1956 61.4635C54.6568 60.9757 54.9643 60.4879 55.2718 59.8781C55.5793 59.2684 55.2718 58.5367 54.6568 58.0489C54.0419 57.5611 53.2731 57.4391 52.3507 57.5611C52.1969 57.5611 51.8894 57.5611 51.7357 57.683C51.5819 57.683 50.967 57.9269 50.8132 57.9269C50.8132 57.9269 50.8132 57.9269 50.9669 57.805C51.4282 57.683 50.9669 57.805 50.6595 57.9269C50.352 57.9269 50.0445 57.9269 49.737 57.9269C48.9683 57.9269 48.3533 58.1708 47.7383 58.4147C47.5846 58.4147 47.2771 58.5367 47.1233 58.5367C46.6621 58.6586 46.0471 58.6586 45.5859 58.9025C45.2784 59.0245 45.1246 59.1464 44.8171 59.2684C44.5097 59.3903 44.0484 59.5123 43.5872 59.6342C43.2797 59.7562 43.126 59.7562 42.8185 59.8781C42.0497 60.0001 41.5885 60.244 40.9735 60.4879C40.8198 60.6099 40.5123 60.6099 40.3585 60.7318C39.7436 60.8538 39.2823 61.0977 38.8211 61.3416C38.2061 61.5855 37.5911 61.8294 37.4374 62.4391C36.9761 62.805 36.9761 63.4147 37.2836 63.7806C37.4374 64.3903 38.2061 64.8781 38.8211 65.0001C39.1286 65.122 39.4361 65.244 39.5898 65.366C39.8973 65.4879 40.051 65.4879 40.3585 65.6099C41.1273 65.7318 41.896 65.8538 42.511 65.8538C42.2035 65.8538 41.896 65.7318 41.5885 65.7318C42.3572 65.8538 43.1259 65.9757 43.8947 65.9757C44.6634 65.8538 45.4321 65.8538 46.3546 65.7318C47.892 65.4879 49.5832 65.244 50.6595 64.3903C50.9669 64.2684 51.2744 64.0245 51.5819 63.9025C52.1969 63.4147 52.8119 63.1708 53.4269 62.4391Z" fill="#FBBD08"/>
<path d="M82.4847 44.6342C82.6384 44.2684 82.9459 43.9025 83.0997 43.5367C83.0997 43.2928 83.2534 43.0489 83.2534 42.9269C83.2534 42.683 83.2534 42.4391 83.0997 42.3172C82.9459 41.7074 82.4847 41.3416 82.0235 40.9757C81.5622 40.7318 81.101 40.4879 80.486 40.366C79.871 40.244 79.1023 40.366 78.4873 40.6099C78.3336 40.6099 78.3336 40.6099 78.1798 40.7318C77.5649 40.7318 76.9499 40.8538 76.3349 41.2196C76.1812 41.3416 75.8737 41.4635 75.7199 41.5855C75.4124 41.7074 75.1049 41.8294 74.7975 42.0733C74.6437 42.0733 74.6437 42.1952 74.49 42.1952C74.0287 42.4391 73.5675 42.5611 73.1063 42.683H73.26C72.9525 42.805 72.4913 42.9269 72.1838 43.1708C71.8763 43.4147 71.7226 43.5367 71.5688 43.7806C70.6463 44.5123 70.6463 45.8538 71.5688 46.5855L71.7225 46.7074C72.03 47.0733 72.3375 47.3172 72.7988 47.5611C73.4137 47.805 74.0287 47.9269 74.6437 47.9269C74.7975 47.9269 75.1049 47.9269 75.2587 47.9269C75.7199 47.9269 76.0274 47.9269 76.4886 47.9269C77.1036 47.9269 77.5649 47.9269 78.1798 47.805C78.6411 47.683 79.2561 47.5611 79.7173 47.3172C79.871 47.1952 80.1785 47.1952 80.3323 47.0733C81.101 46.7074 81.5622 46.3416 82.0235 45.7318C82.1772 45.366 82.331 45.0001 82.4847 44.6342Z" fill="#FBBD08"/>
<path d="M88.6351 32.0732C88.6351 31.9512 88.7889 31.9512 88.7889 31.8293C88.9426 31.5854 89.0964 31.4634 89.0964 31.2195C89.0964 30.9756 89.0964 30.7317 89.0964 30.4878C89.0964 30.3659 88.9426 30.2439 88.9426 30.122C88.7889 29.8781 88.4814 29.6342 88.1739 29.5122C88.0202 29.5122 88.0202 29.3903 87.8664 29.3903C87.4052 29.1464 86.7902 29.0244 86.329 29.0244C86.1752 29.0244 86.1752 28.9025 85.8677 28.9025C85.5602 28.9025 85.2527 28.7805 84.9453 28.7805C84.484 28.7805 84.0228 28.7805 83.7153 29.0244C83.4078 29.1464 83.4078 29.1464 83.1003 29.2683C82.7928 29.3903 82.6391 29.5122 82.3316 29.6342C81.8704 29.8781 81.4091 30.122 81.2554 30.4878C81.1016 30.4878 80.9479 30.7317 80.9479 30.8537C80.6404 31.2195 80.4866 31.7073 80.6404 32.0732C80.7941 32.561 81.2554 32.9269 81.7166 33.0488C81.8704 33.1708 82.0241 33.2927 82.3316 33.4147C82.7928 33.6586 83.2541 33.7805 83.869 33.7805H84.7915C85.714 33.7805 86.6365 33.5366 87.4052 33.0488C87.5589 32.9269 87.5589 32.9269 87.7127 32.8049C88.0202 32.683 88.1739 32.561 88.3276 32.4391C88.3276 32.4391 88.4814 32.3171 88.6351 32.0732Z" fill="#FBBD08"/>
<path d="M117.693 34.1464C117.846 33.7805 118 33.5366 118 33.1708C118 32.6829 117.846 32.3171 117.539 31.8293C117.385 31.5854 117.231 31.4634 117.078 31.2195C116.77 30.9756 116.463 30.7317 116.001 30.6098C115.694 30.4878 115.386 30.4878 115.079 30.4878C114.618 30.3659 114.156 30.3659 113.695 30.4878C113.542 30.4878 113.388 30.4878 113.234 30.4878C112.773 30.4878 112.465 30.6098 112.004 30.8537C111.697 30.9756 111.389 31.0976 110.928 31.2195C110.62 31.3415 110.313 31.4634 110.005 31.5854C109.852 31.7073 109.698 31.7073 109.544 31.8293C109.083 32.0732 108.622 32.3171 108.468 32.6829L108.314 32.8049C108.007 33.0488 107.699 33.2927 107.699 33.6586C107.545 33.9025 107.545 34.3903 107.699 34.6342C108.007 35 108.16 35.3659 108.622 35.4878C108.929 35.6098 109.083 35.6098 109.39 35.7317C109.39 35.7317 109.39 35.7317 109.544 35.7317C110.005 35.9756 110.467 35.9756 110.928 36.0976C111.082 36.0976 111.235 36.0976 111.543 36.0976C111.85 36.0976 112.312 36.0976 112.619 36.0976C112.927 36.0976 113.234 36.0976 113.695 35.9756C114.156 35.9756 114.618 35.9756 115.079 35.8537C115.233 35.8537 115.386 35.7317 115.694 35.7317C116.001 35.6098 116.309 35.6098 116.463 35.4878C116.924 35.3659 117.231 35.122 117.539 34.7561C117.385 34.6342 117.539 34.3903 117.693 34.1464Z" fill="#FBBD08"/>
<path d="M109.852 50.4877C109.852 50.4877 109.852 50.6097 109.852 50.4877C110.16 49.756 109.698 49.0243 109.083 48.6585C109.083 48.6585 109.083 48.6585 109.237 48.6585C109.237 48.6585 109.237 48.6585 109.083 48.6585C108.93 48.6585 108.93 48.6585 109.083 48.6585C108.776 48.4146 108.315 48.1707 107.853 48.0487C107.392 47.9268 106.777 47.9268 106.316 47.9268C106.008 47.9268 105.701 47.9268 105.393 48.0487C104.625 48.1707 104.01 48.2926 103.241 48.5365C101.857 49.0243 100.474 49.3902 99.2437 49.9999C98.6287 50.2438 98.0137 50.4877 97.3987 50.7316C97.0912 50.8536 96.9375 50.9755 96.63 51.2194C96.3225 51.3414 95.8613 51.5853 95.5538 51.7072C94.9388 51.9512 94.6313 52.317 94.3238 52.8048C94.4776 52.5609 94.6313 52.439 94.3238 52.6829C94.1701 52.8048 94.0163 52.9268 93.8626 53.0487C93.4014 53.5365 92.7864 54.0243 92.0177 54.3902C91.8639 54.3902 91.8639 54.6341 92.0177 54.6341C92.4789 54.6341 92.9401 54.5121 93.4014 54.6341C93.7088 54.6341 94.0163 54.6341 94.3238 54.6341C94.4776 54.756 94.7851 54.756 95.0926 54.878C95.2463 54.878 95.4 54.878 95.4 54.878C95.7075 54.9999 96.015 54.9999 96.3225 55.1219C96.63 55.1219 97.0912 54.9999 97.3987 54.9999C97.7062 54.9999 98.0137 54.878 98.3212 54.878C98.4749 54.878 98.7824 54.878 98.7824 54.878C100.166 54.878 101.55 54.5121 102.78 54.2682C103.395 54.1463 104.01 54.0243 104.625 53.9024C105.393 53.7804 106.316 53.6585 106.931 53.2926C107.392 53.0487 108.007 52.8048 108.468 52.5609C108.93 52.317 109.391 52.0731 109.698 51.5853C109.698 51.0975 109.698 50.8536 109.852 50.4877Z" fill="#FBBD08"/>
<path d="M76.1815 65.9756C76.3352 65.8536 76.3352 65.6097 76.4889 65.4878C76.9502 64.6341 75.874 63.5366 74.7978 63.6585C74.4903 63.6585 74.029 63.6585 73.5678 63.7805C73.2603 63.7805 72.9528 63.9024 72.7991 64.0244C72.3378 64.1463 71.8766 64.2683 71.4154 64.2683C70.9541 64.2683 70.4929 64.2683 70.0317 64.3902C69.4167 64.5122 68.8017 64.7561 68.1867 65C68.1867 65 68.1867 65 68.3405 65C68.1867 65.1219 67.8792 65.1219 67.7255 65.2439C67.5717 65.3658 67.2642 65.4878 67.1105 65.4878C66.9568 65.6097 66.6493 65.6097 66.4955 65.7317C66.0343 65.9756 65.573 66.2195 65.2656 66.5853C64.9581 66.7073 64.6506 66.8292 64.4968 67.0731C64.0356 67.439 63.8819 67.8048 63.8819 68.2927C63.8819 68.7805 64.1893 69.1463 64.8043 69.3902C65.2656 69.6341 65.8805 69.6341 66.3418 69.7561C66.9568 70 67.5717 70.1219 68.1867 70.1219C68.8017 70.1219 69.4167 70 70.0317 70C70.6466 69.878 71.2616 69.7561 71.7228 69.5122C72.3378 69.2683 72.9528 69.1463 73.414 68.7805C73.8753 68.4146 74.4903 67.9268 74.9515 67.5609C75.259 67.317 75.4127 67.1951 75.7202 66.9512C75.874 66.4634 76.0277 66.2195 76.1815 65.9756Z" fill="#FBBD08"/>
</svg>
